M48
; DRILL file {KiCad (5.1.5)-3} date 01.04.2020 16:02:14
; FORMAT={-:-/ absolute / inch / decimal}
; #@! TF.CreationDate,2020-04-01T16:02:14+02:00
; #@! TF.GenerationSoftware,Kicad,Pcbnew,(5.1.5)-3
FMAT,2
INCH
T1C0.0157
T2C0.0394
%
G90
G05
T1
X3.6614Y-2.4803
X3.6614Y-2.7165
X3.6614Y-2.9528
X3.6614Y-3.189
X3.6614Y-3.4252
X3.6614Y-3.6614
X3.6614Y-3.8976
X3.6614Y-4.1339
X3.6614Y-4.3701
X3.6614Y-4.6063
X3.6614Y-4.8425
X3.6614Y-5.0787
X3.6614Y-5.315
X3.6614Y-5.5512
X3.6614Y-5.7874
X6.9291Y-2.4803
X6.9291Y-2.7165
X6.9291Y-2.9528
X6.9291Y-3.189
X6.9291Y-3.4252
X6.9291Y-3.6614
X6.9291Y-3.8976
X6.9291Y-4.1339
X6.9291Y-4.3701
X6.9291Y-4.6063
X6.9291Y-4.8425
X6.9291Y-5.0787
X6.9291Y-5.315
X6.9291Y-5.5512
X6.9291Y-5.7874
T2
X7.1654Y-2.2441
X3.5039Y-2.2835
T0
M30
