G04 #@! TF.GenerationSoftware,KiCad,Pcbnew,(5.1.5)-3*
G04 #@! TF.CreationDate,2020-04-01T16:02:12+02:00*
G04 #@! TF.ProjectId,elektrode_v1,656c656b-7472-46f6-9465-5f76312e6b69,rev?*
G04 #@! TF.SameCoordinates,Original*
G04 #@! TF.FileFunction,Legend,Top*
G04 #@! TF.FilePolarity,Positive*
%FSLAX46Y46*%
G04 Gerber Fmt 4.6, Leading zero omitted, Abs format (unit mm)*
G04 Created by KiCad (PCBNEW (5.1.5)-3) date 2020-04-01 16:02:12*
%MOMM*%
%LPD*%
G04 APERTURE LIST*
%ADD10C,0.300000*%
%ADD11C,0.120000*%
%ADD12C,0.150000*%
G04 APERTURE END LIST*
D10*
X119714285Y-152892857D02*
X120214285Y-152892857D01*
X120428571Y-153678571D02*
X119714285Y-153678571D01*
X119714285Y-152178571D01*
X120428571Y-152178571D01*
X121285714Y-153678571D02*
X121142857Y-153607142D01*
X121071428Y-153464285D01*
X121071428Y-152178571D01*
X122428571Y-153607142D02*
X122285714Y-153678571D01*
X122000000Y-153678571D01*
X121857142Y-153607142D01*
X121785714Y-153464285D01*
X121785714Y-152892857D01*
X121857142Y-152750000D01*
X122000000Y-152678571D01*
X122285714Y-152678571D01*
X122428571Y-152750000D01*
X122500000Y-152892857D01*
X122500000Y-153035714D01*
X121785714Y-153178571D01*
X123142857Y-153678571D02*
X123142857Y-152178571D01*
X123285714Y-153107142D02*
X123714285Y-153678571D01*
X123714285Y-152678571D02*
X123142857Y-153250000D01*
X124142857Y-152678571D02*
X124714285Y-152678571D01*
X124357142Y-152178571D02*
X124357142Y-153464285D01*
X124428571Y-153607142D01*
X124571428Y-153678571D01*
X124714285Y-153678571D01*
X125214285Y-153678571D02*
X125214285Y-152678571D01*
X125214285Y-152964285D02*
X125285714Y-152821428D01*
X125357142Y-152750000D01*
X125500000Y-152678571D01*
X125642857Y-152678571D01*
X126357142Y-153678571D02*
X126214285Y-153607142D01*
X126142857Y-153535714D01*
X126071428Y-153392857D01*
X126071428Y-152964285D01*
X126142857Y-152821428D01*
X126214285Y-152750000D01*
X126357142Y-152678571D01*
X126571428Y-152678571D01*
X126714285Y-152750000D01*
X126785714Y-152821428D01*
X126857142Y-152964285D01*
X126857142Y-153392857D01*
X126785714Y-153535714D01*
X126714285Y-153607142D01*
X126571428Y-153678571D01*
X126357142Y-153678571D01*
X128142857Y-153678571D02*
X128142857Y-152178571D01*
X128142857Y-153607142D02*
X128000000Y-153678571D01*
X127714285Y-153678571D01*
X127571428Y-153607142D01*
X127500000Y-153535714D01*
X127428571Y-153392857D01*
X127428571Y-152964285D01*
X127500000Y-152821428D01*
X127571428Y-152750000D01*
X127714285Y-152678571D01*
X128000000Y-152678571D01*
X128142857Y-152750000D01*
X129428571Y-153607142D02*
X129285714Y-153678571D01*
X129000000Y-153678571D01*
X128857142Y-153607142D01*
X128785714Y-153464285D01*
X128785714Y-152892857D01*
X128857142Y-152750000D01*
X129000000Y-152678571D01*
X129285714Y-152678571D01*
X129428571Y-152750000D01*
X129500000Y-152892857D01*
X129500000Y-153035714D01*
X128785714Y-153178571D01*
X131142857Y-152678571D02*
X131500000Y-153678571D01*
X131857142Y-152678571D01*
X133214285Y-153678571D02*
X132357142Y-153678571D01*
X132785714Y-153678571D02*
X132785714Y-152178571D01*
X132642857Y-152392857D01*
X132500000Y-152535714D01*
X132357142Y-152607142D01*
X134785714Y-152178571D02*
X135285714Y-153678571D01*
X135785714Y-152178571D01*
X136857142Y-153607142D02*
X136714285Y-153678571D01*
X136428571Y-153678571D01*
X136285714Y-153607142D01*
X136214285Y-153464285D01*
X136214285Y-152892857D01*
X136285714Y-152750000D01*
X136428571Y-152678571D01*
X136714285Y-152678571D01*
X136857142Y-152750000D01*
X136928571Y-152892857D01*
X136928571Y-153035714D01*
X136214285Y-153178571D01*
X137571428Y-153678571D02*
X137571428Y-152678571D01*
X137571428Y-152964285D02*
X137642857Y-152821428D01*
X137714285Y-152750000D01*
X137857142Y-152678571D01*
X138000000Y-152678571D01*
X138357142Y-152678571D02*
X138714285Y-153678571D01*
X139071428Y-152678571D01*
X139857142Y-153678571D02*
X139714285Y-153607142D01*
X139642857Y-153535714D01*
X139571428Y-153392857D01*
X139571428Y-152964285D01*
X139642857Y-152821428D01*
X139714285Y-152750000D01*
X139857142Y-152678571D01*
X140071428Y-152678571D01*
X140214285Y-152750000D01*
X140285714Y-152821428D01*
X140357142Y-152964285D01*
X140357142Y-153392857D01*
X140285714Y-153535714D01*
X140214285Y-153607142D01*
X140071428Y-153678571D01*
X139857142Y-153678571D01*
X141214285Y-153678571D02*
X141071428Y-153607142D01*
X141000000Y-153535714D01*
X140928571Y-153392857D01*
X140928571Y-152964285D01*
X141000000Y-152821428D01*
X141071428Y-152750000D01*
X141214285Y-152678571D01*
X141428571Y-152678571D01*
X141571428Y-152750000D01*
X141642857Y-152821428D01*
X141714285Y-152964285D01*
X141714285Y-153392857D01*
X141642857Y-153535714D01*
X141571428Y-153607142D01*
X141428571Y-153678571D01*
X141214285Y-153678571D01*
X142357142Y-153678571D02*
X142357142Y-152678571D01*
X142357142Y-152964285D02*
X142428571Y-152821428D01*
X142500000Y-152750000D01*
X142642857Y-152678571D01*
X142785714Y-152678571D01*
X143071428Y-152678571D02*
X143642857Y-152678571D01*
X143285714Y-152178571D02*
X143285714Y-153464285D01*
X143357142Y-153607142D01*
X143500000Y-153678571D01*
X143642857Y-153678571D01*
X145214285Y-152321428D02*
X145285714Y-152250000D01*
X145428571Y-152178571D01*
X145785714Y-152178571D01*
X145928571Y-152250000D01*
X146000000Y-152321428D01*
X146071428Y-152464285D01*
X146071428Y-152607142D01*
X146000000Y-152821428D01*
X145142857Y-153678571D01*
X146071428Y-153678571D01*
X147000000Y-152178571D02*
X147142857Y-152178571D01*
X147285714Y-152250000D01*
X147357142Y-152321428D01*
X147428571Y-152464285D01*
X147500000Y-152750000D01*
X147500000Y-153107142D01*
X147428571Y-153392857D01*
X147357142Y-153535714D01*
X147285714Y-153607142D01*
X147142857Y-153678571D01*
X147000000Y-153678571D01*
X146857142Y-153607142D01*
X146785714Y-153535714D01*
X146714285Y-153392857D01*
X146642857Y-153107142D01*
X146642857Y-152750000D01*
X146714285Y-152464285D01*
X146785714Y-152321428D01*
X146857142Y-152250000D01*
X147000000Y-152178571D01*
X148071428Y-152321428D02*
X148142857Y-152250000D01*
X148285714Y-152178571D01*
X148642857Y-152178571D01*
X148785714Y-152250000D01*
X148857142Y-152321428D01*
X148928571Y-152464285D01*
X148928571Y-152607142D01*
X148857142Y-152821428D01*
X148000000Y-153678571D01*
X148928571Y-153678571D01*
X149857142Y-152178571D02*
X150000000Y-152178571D01*
X150142857Y-152250000D01*
X150214285Y-152321428D01*
X150285714Y-152464285D01*
X150357142Y-152750000D01*
X150357142Y-153107142D01*
X150285714Y-153392857D01*
X150214285Y-153535714D01*
X150142857Y-153607142D01*
X150000000Y-153678571D01*
X149857142Y-153678571D01*
X149714285Y-153607142D01*
X149642857Y-153535714D01*
X149571428Y-153392857D01*
X149500000Y-153107142D01*
X149500000Y-152750000D01*
X149571428Y-152464285D01*
X149642857Y-152321428D01*
X149714285Y-152250000D01*
X149857142Y-152178571D01*
D11*
X180670000Y-55670000D02*
X182000000Y-55670000D01*
X180670000Y-57000000D02*
X180670000Y-55670000D01*
X180670000Y-58270000D02*
X183330000Y-58270000D01*
X183330000Y-58270000D02*
X183330000Y-58330000D01*
X180670000Y-58270000D02*
X180670000Y-58330000D01*
X180670000Y-58330000D02*
X183330000Y-58330000D01*
X87670000Y-56670000D02*
X89000000Y-56670000D01*
X87670000Y-58000000D02*
X87670000Y-56670000D01*
X87670000Y-59270000D02*
X90330000Y-59270000D01*
X90330000Y-59270000D02*
X90330000Y-59330000D01*
X87670000Y-59270000D02*
X87670000Y-59330000D01*
X87670000Y-59330000D02*
X90330000Y-59330000D01*
D12*
X178071428Y-56928571D02*
X178214285Y-56976190D01*
X178261904Y-57023809D01*
X178309523Y-57119047D01*
X178309523Y-57261904D01*
X178261904Y-57357142D01*
X178214285Y-57404761D01*
X178119047Y-57452380D01*
X177738095Y-57452380D01*
X177738095Y-56452380D01*
X178071428Y-56452380D01*
X178166666Y-56500000D01*
X178214285Y-56547619D01*
X178261904Y-56642857D01*
X178261904Y-56738095D01*
X178214285Y-56833333D01*
X178166666Y-56880952D01*
X178071428Y-56928571D01*
X177738095Y-56928571D01*
X90761904Y-58166666D02*
X91238095Y-58166666D01*
X90666666Y-58452380D02*
X91000000Y-57452380D01*
X91333333Y-58452380D01*
M02*
