G04 #@! TF.GenerationSoftware,KiCad,Pcbnew,(5.1.5)-3*
G04 #@! TF.CreationDate,2020-04-01T16:02:12+02:00*
G04 #@! TF.ProjectId,elektrode_v1,656c656b-7472-46f6-9465-5f76312e6b69,rev?*
G04 #@! TF.SameCoordinates,Original*
G04 #@! TF.FileFunction,Copper,L1,Top*
G04 #@! TF.FilePolarity,Positive*
%FSLAX46Y46*%
G04 Gerber Fmt 4.6, Leading zero omitted, Abs format (unit mm)*
G04 Created by KiCad (PCBNEW (5.1.5)-3) date 2020-04-01 16:02:12*
%MOMM*%
%LPD*%
G04 APERTURE LIST*
%ADD10R,1.700000X1.700000*%
%ADD11C,0.800000*%
%ADD12C,1.000000*%
G04 APERTURE END LIST*
D10*
X182000000Y-57000000D03*
X89000000Y-58000000D03*
D11*
X176000000Y-63000000D03*
X176000000Y-69000000D03*
X176000000Y-75000000D03*
X176000000Y-81000000D03*
X176000000Y-87000000D03*
X176000000Y-93000000D03*
X176000000Y-99000000D03*
X176000000Y-105000000D03*
X176000000Y-111000000D03*
X176000000Y-117000000D03*
X176000000Y-123000000D03*
X176000000Y-129000000D03*
X176000000Y-135000000D03*
X176000000Y-141000000D03*
X176000000Y-147000000D03*
X93000000Y-147000000D03*
X93000000Y-141000000D03*
X93000000Y-135000000D03*
X93000000Y-129000000D03*
X93000000Y-123000000D03*
X93000000Y-117000000D03*
X93000000Y-111000000D03*
X93000000Y-105000000D03*
X93000000Y-99000000D03*
X93000000Y-93000000D03*
X93000000Y-87000000D03*
X93000000Y-81000000D03*
X93000000Y-63000000D03*
X93000000Y-69000000D03*
X93000000Y-75000000D03*
D12*
X89150000Y-60000000D02*
X90000000Y-60000000D01*
X89000000Y-59850000D02*
X89150000Y-60000000D01*
X89000000Y-58000000D02*
X89000000Y-59850000D01*
X180000000Y-60000000D02*
X90000000Y-60000000D01*
X90000000Y-72000000D02*
X179000000Y-72000000D01*
X90000000Y-60000000D02*
X90000000Y-68000000D01*
X90000000Y-66000000D02*
X178000000Y-66000000D01*
X90000000Y-78000000D02*
X178000000Y-78000000D01*
X90000000Y-96000000D02*
X179000000Y-96000000D01*
X90000000Y-102000000D02*
X179000000Y-102000000D01*
X90000000Y-114000000D02*
X179000000Y-114000000D01*
X90000000Y-120000000D02*
X179000000Y-120000000D01*
X90000000Y-132000000D02*
X179000000Y-132000000D01*
X90000000Y-138000000D02*
X179000000Y-138000000D01*
X90000000Y-144000000D02*
X179000000Y-144000000D01*
X180000000Y-60000000D02*
X180000000Y-63000000D01*
X180000000Y-63000000D02*
X180000000Y-64000000D01*
X179000000Y-72000000D02*
X180000000Y-72000000D01*
X180000000Y-68000000D02*
X180000000Y-74000000D01*
X180000000Y-72000000D02*
X180000000Y-78000000D01*
X178000000Y-78000000D02*
X180000000Y-78000000D01*
X178000000Y-84000000D02*
X180000000Y-84000000D01*
X180000000Y-78000000D02*
X180000000Y-84000000D01*
X178000000Y-84000000D02*
X179000000Y-84000000D01*
X90000000Y-84000000D02*
X178000000Y-84000000D01*
X178000000Y-90000000D02*
X180000000Y-90000000D01*
X180000000Y-84000000D02*
X180000000Y-90000000D01*
X178000000Y-90000000D02*
X179000000Y-90000000D01*
X90000000Y-90000000D02*
X178000000Y-90000000D01*
X179000000Y-96000000D02*
X180000000Y-96000000D01*
X180000000Y-90000000D02*
X180000000Y-96000000D01*
X179000000Y-102000000D02*
X180000000Y-102000000D01*
X180000000Y-96000000D02*
X180000000Y-102000000D01*
X178000000Y-108000000D02*
X180000000Y-108000000D01*
X180000000Y-102000000D02*
X180000000Y-108000000D01*
X178000000Y-108000000D02*
X179000000Y-108000000D01*
X90000000Y-108000000D02*
X178000000Y-108000000D01*
X180000000Y-108000000D02*
X180000000Y-114000000D01*
X179000000Y-114000000D02*
X180000000Y-114000000D01*
X179000000Y-120000000D02*
X180000000Y-120000000D01*
X180000000Y-114000000D02*
X180000000Y-120000000D01*
X180000000Y-120000000D02*
X180000000Y-126000000D01*
X178000000Y-126000000D02*
X180000000Y-126000000D01*
X178000000Y-126000000D02*
X179000000Y-126000000D01*
X90000000Y-126000000D02*
X178000000Y-126000000D01*
X179000000Y-132000000D02*
X180000000Y-132000000D01*
X180000000Y-126000000D02*
X180000000Y-132000000D01*
X179000000Y-138000000D02*
X180000000Y-138000000D01*
X180000000Y-132000000D02*
X180000000Y-138000000D01*
X179000000Y-144000000D02*
X180000000Y-144000000D01*
X93000000Y-63000000D02*
X93000000Y-63000000D01*
X176000000Y-69000000D02*
X176000000Y-69000000D01*
X90000000Y-67000000D02*
X90000000Y-150000000D01*
X90000000Y-150000000D02*
X180000000Y-150000000D01*
X176000000Y-81000000D02*
X176000000Y-81000000D01*
X93000000Y-75000000D02*
X93000000Y-75000000D01*
X176000000Y-93000000D02*
X176000000Y-93000000D01*
X93000000Y-87000000D02*
X93000000Y-87000000D01*
X93000000Y-99000000D02*
X93000000Y-99000000D01*
X176000000Y-105000000D02*
X176000000Y-105000000D01*
X176000000Y-117000000D02*
X176000000Y-117000000D01*
X93000000Y-111000000D02*
X93000000Y-111000000D01*
X93000000Y-123000000D02*
X93000000Y-123000000D01*
X176000000Y-129000000D02*
X176000000Y-129000000D01*
X176000000Y-141000000D02*
X176000000Y-141000000D01*
X93000000Y-135000000D02*
X93000000Y-135000000D01*
X176000000Y-147000000D02*
X176000000Y-147000000D01*
X180000000Y-148000000D02*
X180000000Y-143000000D01*
X180000000Y-143000000D02*
X180000000Y-144000000D01*
X180000000Y-138000000D02*
X180000000Y-143000000D01*
X180000000Y-148000000D02*
X180000000Y-147000000D01*
X180000000Y-150000000D02*
X180000000Y-148000000D01*
X178000000Y-66000000D02*
X180000000Y-66000000D01*
X180000000Y-64000000D02*
X180000000Y-66000000D01*
X180000000Y-66000000D02*
X180000000Y-69000000D01*
X176000000Y-63000000D02*
X176000000Y-63000000D01*
X176000000Y-69000000D02*
X93000000Y-69000000D01*
X176000000Y-75000000D02*
X176000000Y-75000000D01*
X176000000Y-81000000D02*
X93000000Y-81000000D01*
X176000000Y-87000000D02*
X176000000Y-87000000D01*
X176000000Y-93000000D02*
X93000000Y-93000000D01*
X176000000Y-99000000D02*
X176000000Y-99000000D01*
X176000000Y-105000000D02*
X93000000Y-105000000D01*
X176000000Y-111000000D02*
X176000000Y-111000000D01*
X176000000Y-117000000D02*
X93000000Y-117000000D01*
X176000000Y-123000000D02*
X176000000Y-123000000D01*
X176000000Y-129000000D02*
X93000000Y-129000000D01*
X176000000Y-135000000D02*
X176000000Y-135000000D01*
X176000000Y-141000000D02*
X93000000Y-141000000D01*
X176000000Y-147000000D02*
X93000000Y-147000000D01*
X93000000Y-147000000D02*
X93000000Y-147000000D01*
X93000000Y-141000000D02*
X93000000Y-141000000D01*
X93000000Y-135000000D02*
X176000000Y-135000000D01*
X93000000Y-129000000D02*
X93000000Y-129000000D01*
X93000000Y-123000000D02*
X176000000Y-123000000D01*
X93000000Y-117000000D02*
X93000000Y-117000000D01*
X93000000Y-111000000D02*
X176000000Y-111000000D01*
X93000000Y-105000000D02*
X93000000Y-105000000D01*
X93000000Y-99000000D02*
X176000000Y-99000000D01*
X93000000Y-93000000D02*
X93000000Y-93000000D01*
X93000000Y-87000000D02*
X176000000Y-87000000D01*
X93000000Y-81000000D02*
X93000000Y-81000000D01*
X93000000Y-63000000D02*
X176000000Y-63000000D01*
X93000000Y-69000000D02*
X93000000Y-69000000D01*
X93000000Y-75000000D02*
X176000000Y-75000000D01*
M02*
