G04 #@! TF.GenerationSoftware,KiCad,Pcbnew,(5.1.5)-3*
G04 #@! TF.CreationDate,2020-04-01T16:02:12+02:00*
G04 #@! TF.ProjectId,elektrode_v1,656c656b-7472-46f6-9465-5f76312e6b69,rev?*
G04 #@! TF.SameCoordinates,Original*
G04 #@! TF.FileFunction,Legend,Bot*
G04 #@! TF.FilePolarity,Positive*
%FSLAX46Y46*%
G04 Gerber Fmt 4.6, Leading zero omitted, Abs format (unit mm)*
G04 Created by KiCad (PCBNEW (5.1.5)-3) date 2020-04-01 16:02:12*
%MOMM*%
%LPD*%
G04 APERTURE LIST*
%ADD10C,0.300000*%
%ADD11C,0.150000*%
G04 APERTURE END LIST*
D10*
X139857142Y-89178571D02*
X139357142Y-90678571D01*
X138857142Y-89178571D01*
X137785714Y-90607142D02*
X137928571Y-90678571D01*
X138214285Y-90678571D01*
X138357142Y-90607142D01*
X138428571Y-90464285D01*
X138428571Y-89892857D01*
X138357142Y-89750000D01*
X138214285Y-89678571D01*
X137928571Y-89678571D01*
X137785714Y-89750000D01*
X137714285Y-89892857D01*
X137714285Y-90035714D01*
X138428571Y-90178571D01*
X137071428Y-90678571D02*
X137071428Y-89678571D01*
X137071428Y-89964285D02*
X137000000Y-89821428D01*
X136928571Y-89750000D01*
X136785714Y-89678571D01*
X136642857Y-89678571D01*
X136285714Y-89678571D02*
X135928571Y-90678571D01*
X135571428Y-89678571D01*
X134785714Y-90678571D02*
X134928571Y-90607142D01*
X135000000Y-90535714D01*
X135071428Y-90392857D01*
X135071428Y-89964285D01*
X135000000Y-89821428D01*
X134928571Y-89750000D01*
X134785714Y-89678571D01*
X134571428Y-89678571D01*
X134428571Y-89750000D01*
X134357142Y-89821428D01*
X134285714Y-89964285D01*
X134285714Y-90392857D01*
X134357142Y-90535714D01*
X134428571Y-90607142D01*
X134571428Y-90678571D01*
X134785714Y-90678571D01*
X133428571Y-90678571D02*
X133571428Y-90607142D01*
X133642857Y-90535714D01*
X133714285Y-90392857D01*
X133714285Y-89964285D01*
X133642857Y-89821428D01*
X133571428Y-89750000D01*
X133428571Y-89678571D01*
X133214285Y-89678571D01*
X133071428Y-89750000D01*
X133000000Y-89821428D01*
X132928571Y-89964285D01*
X132928571Y-90392857D01*
X133000000Y-90535714D01*
X133071428Y-90607142D01*
X133214285Y-90678571D01*
X133428571Y-90678571D01*
X132285714Y-90678571D02*
X132285714Y-89678571D01*
X132285714Y-89964285D02*
X132214285Y-89821428D01*
X132142857Y-89750000D01*
X132000000Y-89678571D01*
X131857142Y-89678571D01*
X131571428Y-89678571D02*
X131000000Y-89678571D01*
X131357142Y-89178571D02*
X131357142Y-90464285D01*
X131285714Y-90607142D01*
X131142857Y-90678571D01*
X131000000Y-90678571D01*
X129428571Y-89321428D02*
X129357142Y-89250000D01*
X129214285Y-89178571D01*
X128857142Y-89178571D01*
X128714285Y-89250000D01*
X128642857Y-89321428D01*
X128571428Y-89464285D01*
X128571428Y-89607142D01*
X128642857Y-89821428D01*
X129500000Y-90678571D01*
X128571428Y-90678571D01*
X127642857Y-89178571D02*
X127500000Y-89178571D01*
X127357142Y-89250000D01*
X127285714Y-89321428D01*
X127214285Y-89464285D01*
X127142857Y-89750000D01*
X127142857Y-90107142D01*
X127214285Y-90392857D01*
X127285714Y-90535714D01*
X127357142Y-90607142D01*
X127500000Y-90678571D01*
X127642857Y-90678571D01*
X127785714Y-90607142D01*
X127857142Y-90535714D01*
X127928571Y-90392857D01*
X128000000Y-90107142D01*
X128000000Y-89750000D01*
X127928571Y-89464285D01*
X127857142Y-89321428D01*
X127785714Y-89250000D01*
X127642857Y-89178571D01*
X126571428Y-89321428D02*
X126500000Y-89250000D01*
X126357142Y-89178571D01*
X126000000Y-89178571D01*
X125857142Y-89250000D01*
X125785714Y-89321428D01*
X125714285Y-89464285D01*
X125714285Y-89607142D01*
X125785714Y-89821428D01*
X126642857Y-90678571D01*
X125714285Y-90678571D01*
X124785714Y-89178571D02*
X124642857Y-89178571D01*
X124500000Y-89250000D01*
X124428571Y-89321428D01*
X124357142Y-89464285D01*
X124285714Y-89750000D01*
X124285714Y-90107142D01*
X124357142Y-90392857D01*
X124428571Y-90535714D01*
X124500000Y-90607142D01*
X124642857Y-90678571D01*
X124785714Y-90678571D01*
X124928571Y-90607142D01*
X125000000Y-90535714D01*
X125071428Y-90392857D01*
X125142857Y-90107142D01*
X125142857Y-89750000D01*
X125071428Y-89464285D01*
X125000000Y-89321428D01*
X124928571Y-89250000D01*
X124785714Y-89178571D01*
X138714285Y-86892857D02*
X138214285Y-86892857D01*
X138000000Y-87678571D02*
X138714285Y-87678571D01*
X138714285Y-86178571D01*
X138000000Y-86178571D01*
X137142857Y-87678571D02*
X137285714Y-87607142D01*
X137357142Y-87464285D01*
X137357142Y-86178571D01*
X136000000Y-87607142D02*
X136142857Y-87678571D01*
X136428571Y-87678571D01*
X136571428Y-87607142D01*
X136642857Y-87464285D01*
X136642857Y-86892857D01*
X136571428Y-86750000D01*
X136428571Y-86678571D01*
X136142857Y-86678571D01*
X136000000Y-86750000D01*
X135928571Y-86892857D01*
X135928571Y-87035714D01*
X136642857Y-87178571D01*
X135285714Y-87678571D02*
X135285714Y-86178571D01*
X135142857Y-87107142D02*
X134714285Y-87678571D01*
X134714285Y-86678571D02*
X135285714Y-87250000D01*
X134285714Y-86678571D02*
X133714285Y-86678571D01*
X134071428Y-86178571D02*
X134071428Y-87464285D01*
X134000000Y-87607142D01*
X133857142Y-87678571D01*
X133714285Y-87678571D01*
X133214285Y-87678571D02*
X133214285Y-86678571D01*
X133214285Y-86964285D02*
X133142857Y-86821428D01*
X133071428Y-86750000D01*
X132928571Y-86678571D01*
X132785714Y-86678571D01*
X132071428Y-87678571D02*
X132214285Y-87607142D01*
X132285714Y-87535714D01*
X132357142Y-87392857D01*
X132357142Y-86964285D01*
X132285714Y-86821428D01*
X132214285Y-86750000D01*
X132071428Y-86678571D01*
X131857142Y-86678571D01*
X131714285Y-86750000D01*
X131642857Y-86821428D01*
X131571428Y-86964285D01*
X131571428Y-87392857D01*
X131642857Y-87535714D01*
X131714285Y-87607142D01*
X131857142Y-87678571D01*
X132071428Y-87678571D01*
X130285714Y-87678571D02*
X130285714Y-86178571D01*
X130285714Y-87607142D02*
X130428571Y-87678571D01*
X130714285Y-87678571D01*
X130857142Y-87607142D01*
X130928571Y-87535714D01*
X131000000Y-87392857D01*
X131000000Y-86964285D01*
X130928571Y-86821428D01*
X130857142Y-86750000D01*
X130714285Y-86678571D01*
X130428571Y-86678571D01*
X130285714Y-86750000D01*
X129000000Y-87607142D02*
X129142857Y-87678571D01*
X129428571Y-87678571D01*
X129571428Y-87607142D01*
X129642857Y-87464285D01*
X129642857Y-86892857D01*
X129571428Y-86750000D01*
X129428571Y-86678571D01*
X129142857Y-86678571D01*
X129000000Y-86750000D01*
X128928571Y-86892857D01*
X128928571Y-87035714D01*
X129642857Y-87178571D01*
X128642857Y-87821428D02*
X127500000Y-87821428D01*
X127285714Y-86678571D02*
X126928571Y-87678571D01*
X126571428Y-86678571D01*
X125214285Y-87678571D02*
X126071428Y-87678571D01*
X125642857Y-87678571D02*
X125642857Y-86178571D01*
X125785714Y-86392857D01*
X125928571Y-86535714D01*
X126071428Y-86607142D01*
D11*
X124333333Y-65452380D02*
X124333333Y-66166666D01*
X124380952Y-66309523D01*
X124476190Y-66404761D01*
X124619047Y-66452380D01*
X124714285Y-66452380D01*
X123380952Y-66452380D02*
X123857142Y-66452380D01*
X123857142Y-65452380D01*
X122476190Y-66357142D02*
X122523809Y-66404761D01*
X122666666Y-66452380D01*
X122761904Y-66452380D01*
X122904761Y-66404761D01*
X123000000Y-66309523D01*
X123047619Y-66214285D01*
X123095238Y-66023809D01*
X123095238Y-65880952D01*
X123047619Y-65690476D01*
X123000000Y-65595238D01*
X122904761Y-65500000D01*
X122761904Y-65452380D01*
X122666666Y-65452380D01*
X122523809Y-65500000D01*
X122476190Y-65547619D01*
X121761904Y-65452380D02*
X121761904Y-66166666D01*
X121809523Y-66309523D01*
X121904761Y-66404761D01*
X122047619Y-66452380D01*
X122142857Y-66452380D01*
X120809523Y-66452380D02*
X121285714Y-66452380D01*
X121285714Y-65452380D01*
X119904761Y-66357142D02*
X119952380Y-66404761D01*
X120095238Y-66452380D01*
X120190476Y-66452380D01*
X120333333Y-66404761D01*
X120428571Y-66309523D01*
X120476190Y-66214285D01*
X120523809Y-66023809D01*
X120523809Y-65880952D01*
X120476190Y-65690476D01*
X120428571Y-65595238D01*
X120333333Y-65500000D01*
X120190476Y-65452380D01*
X120095238Y-65452380D01*
X119952380Y-65500000D01*
X119904761Y-65547619D01*
X119190476Y-65452380D02*
X119190476Y-66166666D01*
X119238095Y-66309523D01*
X119333333Y-66404761D01*
X119476190Y-66452380D01*
X119571428Y-66452380D01*
X118238095Y-66452380D02*
X118714285Y-66452380D01*
X118714285Y-65452380D01*
X117333333Y-66357142D02*
X117380952Y-66404761D01*
X117523809Y-66452380D01*
X117619047Y-66452380D01*
X117761904Y-66404761D01*
X117857142Y-66309523D01*
X117904761Y-66214285D01*
X117952380Y-66023809D01*
X117952380Y-65880952D01*
X117904761Y-65690476D01*
X117857142Y-65595238D01*
X117761904Y-65500000D01*
X117619047Y-65452380D01*
X117523809Y-65452380D01*
X117380952Y-65500000D01*
X117333333Y-65547619D01*
D10*
X176678571Y-57678571D02*
X176678571Y-56178571D01*
X175964285Y-56678571D02*
X175964285Y-57678571D01*
X175964285Y-56821428D02*
X175892857Y-56750000D01*
X175750000Y-56678571D01*
X175535714Y-56678571D01*
X175392857Y-56750000D01*
X175321428Y-56892857D01*
X175321428Y-57678571D01*
X174607142Y-56678571D02*
X174607142Y-57678571D01*
X174607142Y-56821428D02*
X174535714Y-56750000D01*
X174392857Y-56678571D01*
X174178571Y-56678571D01*
X174035714Y-56750000D01*
X173964285Y-56892857D01*
X173964285Y-57678571D01*
X172678571Y-57607142D02*
X172821428Y-57678571D01*
X173107142Y-57678571D01*
X173250000Y-57607142D01*
X173321428Y-57464285D01*
X173321428Y-56892857D01*
X173250000Y-56750000D01*
X173107142Y-56678571D01*
X172821428Y-56678571D01*
X172678571Y-56750000D01*
X172607142Y-56892857D01*
X172607142Y-57035714D01*
X173321428Y-57178571D01*
X171964285Y-56678571D02*
X171964285Y-57678571D01*
X171964285Y-56821428D02*
X171892857Y-56750000D01*
X171750000Y-56678571D01*
X171535714Y-56678571D01*
X171392857Y-56750000D01*
X171321428Y-56892857D01*
X171321428Y-57678571D01*
X98178571Y-58250000D02*
X97464285Y-58250000D01*
X98321428Y-58678571D02*
X97821428Y-57178571D01*
X97321428Y-58678571D01*
X96178571Y-57678571D02*
X96178571Y-58678571D01*
X96821428Y-57678571D02*
X96821428Y-58464285D01*
X96750000Y-58607142D01*
X96607142Y-58678571D01*
X96392857Y-58678571D01*
X96250000Y-58607142D01*
X96178571Y-58535714D01*
X95464285Y-58678571D02*
X95464285Y-57464285D01*
X95392857Y-57321428D01*
X95321428Y-57250000D01*
X95178571Y-57178571D01*
X94964285Y-57178571D01*
X94821428Y-57250000D01*
X94750000Y-57321428D01*
X94678571Y-57464285D01*
X94678571Y-57678571D01*
X94892857Y-57678571D01*
X95035714Y-57750000D01*
X95107142Y-57892857D01*
X95107142Y-57964285D01*
X95035714Y-58107142D01*
X94892857Y-58178571D01*
X94678571Y-58178571D01*
X94535714Y-58250000D01*
X94464285Y-58392857D01*
X94464285Y-58464285D01*
X94535714Y-58607142D01*
X94678571Y-58678571D01*
X94964285Y-58678571D01*
X95107142Y-58607142D01*
X93250000Y-58607142D02*
X93392857Y-58678571D01*
X93678571Y-58678571D01*
X93821428Y-58607142D01*
X93892857Y-58464285D01*
X93892857Y-57892857D01*
X93821428Y-57750000D01*
X93678571Y-57678571D01*
X93392857Y-57678571D01*
X93250000Y-57750000D01*
X93178571Y-57892857D01*
X93178571Y-58035714D01*
X93892857Y-58178571D01*
X92535714Y-57678571D02*
X92535714Y-58678571D01*
X92535714Y-57821428D02*
X92464285Y-57750000D01*
X92321428Y-57678571D01*
X92107142Y-57678571D01*
X91964285Y-57750000D01*
X91892857Y-57892857D01*
X91892857Y-58678571D01*
M02*
