G04 #@! TF.GenerationSoftware,KiCad,Pcbnew,(5.1.5)-3*
G04 #@! TF.CreationDate,2020-06-13T14:21:20+02:00*
G04 #@! TF.ProjectId,elektrode_v3_bipolar,656c656b-7472-46f6-9465-5f76335f6269,rev?*
G04 #@! TF.SameCoordinates,Original*
G04 #@! TF.FileFunction,Legend,Bot*
G04 #@! TF.FilePolarity,Positive*
%FSLAX46Y46*%
G04 Gerber Fmt 4.6, Leading zero omitted, Abs format (unit mm)*
G04 Created by KiCad (PCBNEW (5.1.5)-3) date 2020-06-13 14:21:20*
%MOMM*%
%LPD*%
G04 APERTURE LIST*
%ADD10C,0.150000*%
%ADD11C,0.300000*%
G04 APERTURE END LIST*
D10*
X95380952Y-65547619D02*
X95380952Y-64833333D01*
X95333333Y-64690476D01*
X95238095Y-64595238D01*
X95095238Y-64547619D01*
X95000000Y-64547619D01*
X96333333Y-64547619D02*
X95857142Y-64547619D01*
X95857142Y-65547619D01*
X97238095Y-64642857D02*
X97190476Y-64595238D01*
X97047619Y-64547619D01*
X96952380Y-64547619D01*
X96809523Y-64595238D01*
X96714285Y-64690476D01*
X96666666Y-64785714D01*
X96619047Y-64976190D01*
X96619047Y-65119047D01*
X96666666Y-65309523D01*
X96714285Y-65404761D01*
X96809523Y-65500000D01*
X96952380Y-65547619D01*
X97047619Y-65547619D01*
X97190476Y-65500000D01*
X97238095Y-65452380D01*
X97952380Y-65547619D02*
X97952380Y-64833333D01*
X97904761Y-64690476D01*
X97809523Y-64595238D01*
X97666666Y-64547619D01*
X97571428Y-64547619D01*
X98904761Y-64547619D02*
X98428571Y-64547619D01*
X98428571Y-65547619D01*
X99809523Y-64642857D02*
X99761904Y-64595238D01*
X99619047Y-64547619D01*
X99523809Y-64547619D01*
X99380952Y-64595238D01*
X99285714Y-64690476D01*
X99238095Y-64785714D01*
X99190476Y-64976190D01*
X99190476Y-65119047D01*
X99238095Y-65309523D01*
X99285714Y-65404761D01*
X99380952Y-65500000D01*
X99523809Y-65547619D01*
X99619047Y-65547619D01*
X99761904Y-65500000D01*
X99809523Y-65452380D01*
X100523809Y-65547619D02*
X100523809Y-64833333D01*
X100476190Y-64690476D01*
X100380952Y-64595238D01*
X100238095Y-64547619D01*
X100142857Y-64547619D01*
X101476190Y-64547619D02*
X101000000Y-64547619D01*
X101000000Y-65547619D01*
X102380952Y-64642857D02*
X102333333Y-64595238D01*
X102190476Y-64547619D01*
X102095238Y-64547619D01*
X101952380Y-64595238D01*
X101857142Y-64690476D01*
X101809523Y-64785714D01*
X101761904Y-64976190D01*
X101761904Y-65119047D01*
X101809523Y-65309523D01*
X101857142Y-65404761D01*
X101952380Y-65500000D01*
X102095238Y-65547619D01*
X102190476Y-65547619D01*
X102333333Y-65500000D01*
X102380952Y-65452380D01*
X103095238Y-65547619D02*
X103095238Y-64833333D01*
X103047619Y-64690476D01*
X102952380Y-64595238D01*
X102809523Y-64547619D01*
X102714285Y-64547619D01*
X104047619Y-64547619D02*
X103571428Y-64547619D01*
X103571428Y-65547619D01*
X104952380Y-64642857D02*
X104904761Y-64595238D01*
X104761904Y-64547619D01*
X104666666Y-64547619D01*
X104523809Y-64595238D01*
X104428571Y-64690476D01*
X104380952Y-64785714D01*
X104333333Y-64976190D01*
X104333333Y-65119047D01*
X104380952Y-65309523D01*
X104428571Y-65404761D01*
X104523809Y-65500000D01*
X104666666Y-65547619D01*
X104761904Y-65547619D01*
X104904761Y-65500000D01*
X104952380Y-65452380D01*
D11*
X142357142Y-76095238D02*
X142357142Y-76761904D01*
X143404761Y-77047619D02*
X143404761Y-76095238D01*
X141404761Y-76095238D01*
X141404761Y-77047619D01*
X143404761Y-78190476D02*
X143309523Y-78000000D01*
X143119047Y-77904761D01*
X141404761Y-77904761D01*
X143309523Y-79714285D02*
X143404761Y-79523809D01*
X143404761Y-79142857D01*
X143309523Y-78952380D01*
X143119047Y-78857142D01*
X142357142Y-78857142D01*
X142166666Y-78952380D01*
X142071428Y-79142857D01*
X142071428Y-79523809D01*
X142166666Y-79714285D01*
X142357142Y-79809523D01*
X142547619Y-79809523D01*
X142738095Y-78857142D01*
X143404761Y-80666666D02*
X141404761Y-80666666D01*
X142642857Y-80857142D02*
X143404761Y-81428571D01*
X142071428Y-81428571D02*
X142833333Y-80666666D01*
X142071428Y-82000000D02*
X142071428Y-82761904D01*
X141404761Y-82285714D02*
X143119047Y-82285714D01*
X143309523Y-82380952D01*
X143404761Y-82571428D01*
X143404761Y-82761904D01*
X143404761Y-83428571D02*
X142071428Y-83428571D01*
X142452380Y-83428571D02*
X142261904Y-83523809D01*
X142166666Y-83619047D01*
X142071428Y-83809523D01*
X142071428Y-83999999D01*
X143404761Y-84952380D02*
X143309523Y-84761904D01*
X143214285Y-84666666D01*
X143023809Y-84571428D01*
X142452380Y-84571428D01*
X142261904Y-84666666D01*
X142166666Y-84761904D01*
X142071428Y-84952380D01*
X142071428Y-85238095D01*
X142166666Y-85428571D01*
X142261904Y-85523809D01*
X142452380Y-85619047D01*
X143023809Y-85619047D01*
X143214285Y-85523809D01*
X143309523Y-85428571D01*
X143404761Y-85238095D01*
X143404761Y-84952380D01*
X143404761Y-87333333D02*
X141404761Y-87333333D01*
X143309523Y-87333333D02*
X143404761Y-87142857D01*
X143404761Y-86761904D01*
X143309523Y-86571428D01*
X143214285Y-86476190D01*
X143023809Y-86380952D01*
X142452380Y-86380952D01*
X142261904Y-86476190D01*
X142166666Y-86571428D01*
X142071428Y-86761904D01*
X142071428Y-87142857D01*
X142166666Y-87333333D01*
X143309523Y-89047619D02*
X143404761Y-88857142D01*
X143404761Y-88476190D01*
X143309523Y-88285714D01*
X143119047Y-88190476D01*
X142357142Y-88190476D01*
X142166666Y-88285714D01*
X142071428Y-88476190D01*
X142071428Y-88857142D01*
X142166666Y-89047619D01*
X142357142Y-89142857D01*
X142547619Y-89142857D01*
X142738095Y-88190476D01*
X143404761Y-91523809D02*
X141404761Y-91523809D01*
X142166666Y-91523809D02*
X142071428Y-91714285D01*
X142071428Y-92095238D01*
X142166666Y-92285714D01*
X142261904Y-92380952D01*
X142452380Y-92476190D01*
X143023809Y-92476190D01*
X143214285Y-92380952D01*
X143309523Y-92285714D01*
X143404761Y-92095238D01*
X143404761Y-91714285D01*
X143309523Y-91523809D01*
X143404761Y-93333333D02*
X142071428Y-93333333D01*
X141404761Y-93333333D02*
X141500000Y-93238095D01*
X141595238Y-93333333D01*
X141500000Y-93428571D01*
X141404761Y-93333333D01*
X141595238Y-93333333D01*
X142071428Y-94285714D02*
X144071428Y-94285714D01*
X142166666Y-94285714D02*
X142071428Y-94476190D01*
X142071428Y-94857142D01*
X142166666Y-95047619D01*
X142261904Y-95142857D01*
X142452380Y-95238095D01*
X143023809Y-95238095D01*
X143214285Y-95142857D01*
X143309523Y-95047619D01*
X143404761Y-94857142D01*
X143404761Y-94476190D01*
X143309523Y-94285714D01*
X143404761Y-96380952D02*
X143309523Y-96190476D01*
X143214285Y-96095238D01*
X143023809Y-95999999D01*
X142452380Y-95999999D01*
X142261904Y-96095238D01*
X142166666Y-96190476D01*
X142071428Y-96380952D01*
X142071428Y-96666666D01*
X142166666Y-96857142D01*
X142261904Y-96952380D01*
X142452380Y-97047619D01*
X143023809Y-97047619D01*
X143214285Y-96952380D01*
X143309523Y-96857142D01*
X143404761Y-96666666D01*
X143404761Y-96380952D01*
X143404761Y-98190476D02*
X143309523Y-97999999D01*
X143119047Y-97904761D01*
X141404761Y-97904761D01*
X143404761Y-99809523D02*
X142357142Y-99809523D01*
X142166666Y-99714285D01*
X142071428Y-99523809D01*
X142071428Y-99142857D01*
X142166666Y-98952380D01*
X143309523Y-99809523D02*
X143404761Y-99619047D01*
X143404761Y-99142857D01*
X143309523Y-98952380D01*
X143119047Y-98857142D01*
X142928571Y-98857142D01*
X142738095Y-98952380D01*
X142642857Y-99142857D01*
X142642857Y-99619047D01*
X142547619Y-99809523D01*
X143404761Y-100761904D02*
X142071428Y-100761904D01*
X142452380Y-100761904D02*
X142261904Y-100857142D01*
X142166666Y-100952380D01*
X142071428Y-101142857D01*
X142071428Y-101333333D01*
X141404761Y-103238095D02*
X143404761Y-103904761D01*
X141404761Y-104571428D01*
X143309523Y-105999999D02*
X143404761Y-105809523D01*
X143404761Y-105428571D01*
X143309523Y-105238095D01*
X143119047Y-105142857D01*
X142357142Y-105142857D01*
X142166666Y-105238095D01*
X142071428Y-105428571D01*
X142071428Y-105809523D01*
X142166666Y-105999999D01*
X142357142Y-106095238D01*
X142547619Y-106095238D01*
X142738095Y-105142857D01*
X143404761Y-106952380D02*
X142071428Y-106952380D01*
X142452380Y-106952380D02*
X142261904Y-107047619D01*
X142166666Y-107142857D01*
X142071428Y-107333333D01*
X142071428Y-107523809D01*
X142071428Y-107999999D02*
X143404761Y-108476190D01*
X142071428Y-108952380D01*
X143404761Y-109999999D02*
X143309523Y-109809523D01*
X143214285Y-109714285D01*
X143023809Y-109619047D01*
X142452380Y-109619047D01*
X142261904Y-109714285D01*
X142166666Y-109809523D01*
X142071428Y-109999999D01*
X142071428Y-110285714D01*
X142166666Y-110476190D01*
X142261904Y-110571428D01*
X142452380Y-110666666D01*
X143023809Y-110666666D01*
X143214285Y-110571428D01*
X143309523Y-110476190D01*
X143404761Y-110285714D01*
X143404761Y-109999999D01*
X143404761Y-111809523D02*
X143309523Y-111619047D01*
X143214285Y-111523809D01*
X143023809Y-111428571D01*
X142452380Y-111428571D01*
X142261904Y-111523809D01*
X142166666Y-111619047D01*
X142071428Y-111809523D01*
X142071428Y-112095238D01*
X142166666Y-112285714D01*
X142261904Y-112380952D01*
X142452380Y-112476190D01*
X143023809Y-112476190D01*
X143214285Y-112380952D01*
X143309523Y-112285714D01*
X143404761Y-112095238D01*
X143404761Y-111809523D01*
X143404761Y-113333333D02*
X142071428Y-113333333D01*
X142452380Y-113333333D02*
X142261904Y-113428571D01*
X142166666Y-113523809D01*
X142071428Y-113714285D01*
X142071428Y-113904761D01*
X142071428Y-114285714D02*
X142071428Y-115047619D01*
X141404761Y-114571428D02*
X143119047Y-114571428D01*
X143309523Y-114666666D01*
X143404761Y-114857142D01*
X143404761Y-115047619D01*
X141595238Y-117142857D02*
X141500000Y-117238095D01*
X141404761Y-117428571D01*
X141404761Y-117904761D01*
X141500000Y-118095238D01*
X141595238Y-118190476D01*
X141785714Y-118285714D01*
X141976190Y-118285714D01*
X142261904Y-118190476D01*
X143404761Y-117047619D01*
X143404761Y-118285714D01*
X141404761Y-119523809D02*
X141404761Y-119714285D01*
X141500000Y-119904761D01*
X141595238Y-119999999D01*
X141785714Y-120095238D01*
X142166666Y-120190476D01*
X142642857Y-120190476D01*
X143023809Y-120095238D01*
X143214285Y-119999999D01*
X143309523Y-119904761D01*
X143404761Y-119714285D01*
X143404761Y-119523809D01*
X143309523Y-119333333D01*
X143214285Y-119238095D01*
X143023809Y-119142857D01*
X142642857Y-119047619D01*
X142166666Y-119047619D01*
X141785714Y-119142857D01*
X141595238Y-119238095D01*
X141500000Y-119333333D01*
X141404761Y-119523809D01*
X141595238Y-120952380D02*
X141500000Y-121047619D01*
X141404761Y-121238095D01*
X141404761Y-121714285D01*
X141500000Y-121904761D01*
X141595238Y-121999999D01*
X141785714Y-122095238D01*
X141976190Y-122095238D01*
X142261904Y-121999999D01*
X143404761Y-120857142D01*
X143404761Y-122095238D01*
X141404761Y-123333333D02*
X141404761Y-123523809D01*
X141500000Y-123714285D01*
X141595238Y-123809523D01*
X141785714Y-123904761D01*
X142166666Y-123999999D01*
X142642857Y-123999999D01*
X143023809Y-123904761D01*
X143214285Y-123809523D01*
X143309523Y-123714285D01*
X143404761Y-123523809D01*
X143404761Y-123333333D01*
X143309523Y-123142857D01*
X143214285Y-123047619D01*
X143023809Y-122952380D01*
X142642857Y-122857142D01*
X142166666Y-122857142D01*
X141785714Y-122952380D01*
X141595238Y-123047619D01*
X141500000Y-123142857D01*
X141404761Y-123333333D01*
D10*
X90380952Y-81221428D02*
X89619047Y-81221428D01*
X90000000Y-81602380D02*
X90000000Y-80840476D01*
X110380952Y-81221428D02*
X109619047Y-81221428D01*
X110380952Y-118921428D02*
X109619047Y-118921428D01*
X90380952Y-118921428D02*
X89619047Y-118921428D01*
X90000000Y-119302380D02*
X90000000Y-118540476D01*
X110380952Y-141421428D02*
X109619047Y-141421428D01*
X90380952Y-141421428D02*
X89619047Y-141421428D01*
X90000000Y-141802380D02*
X90000000Y-141040476D01*
X110380952Y-58721428D02*
X109619047Y-58721428D01*
X90380952Y-58721428D02*
X89619047Y-58721428D01*
X90000000Y-59102380D02*
X90000000Y-58340476D01*
M02*
