G04 #@! TF.GenerationSoftware,KiCad,Pcbnew,(5.1.5)-3*
G04 #@! TF.CreationDate,2020-06-13T14:21:20+02:00*
G04 #@! TF.ProjectId,elektrode_v3_bipolar,656c656b-7472-46f6-9465-5f76335f6269,rev?*
G04 #@! TF.SameCoordinates,Original*
G04 #@! TF.FileFunction,Soldermask,Top*
G04 #@! TF.FilePolarity,Negative*
%FSLAX46Y46*%
G04 Gerber Fmt 4.6, Leading zero omitted, Abs format (unit mm)*
G04 Created by KiCad (PCBNEW (5.1.5)-3) date 2020-06-13 14:21:20*
%MOMM*%
%LPD*%
G04 APERTURE LIST*
%ADD10C,0.150000*%
G04 APERTURE END LIST*
D10*
X167428571Y-125714285D02*
X167428571Y-126047619D01*
X167952380Y-126047619D02*
X166952380Y-126047619D01*
X166952380Y-125571428D01*
X167952380Y-125190476D02*
X167285714Y-125190476D01*
X167476190Y-125190476D02*
X167380952Y-125142857D01*
X167333333Y-125095238D01*
X167285714Y-124999999D01*
X167285714Y-124904761D01*
X167952380Y-124428571D02*
X167904761Y-124523809D01*
X167857142Y-124571428D01*
X167761904Y-124619047D01*
X167476190Y-124619047D01*
X167380952Y-124571428D01*
X167333333Y-124523809D01*
X167285714Y-124428571D01*
X167285714Y-124285714D01*
X167333333Y-124190476D01*
X167380952Y-124142857D01*
X167476190Y-124095238D01*
X167761904Y-124095238D01*
X167857142Y-124142857D01*
X167904761Y-124190476D01*
X167952380Y-124285714D01*
X167952380Y-124428571D01*
X167285714Y-123666666D02*
X167952380Y-123666666D01*
X167380952Y-123666666D02*
X167333333Y-123619047D01*
X167285714Y-123523809D01*
X167285714Y-123380952D01*
X167333333Y-123285714D01*
X167428571Y-123238095D01*
X167952380Y-123238095D01*
X167285714Y-122904761D02*
X167285714Y-122523809D01*
X166952380Y-122761904D02*
X167809523Y-122761904D01*
X167904761Y-122714285D01*
X167952380Y-122619047D01*
X167952380Y-122523809D01*
X167952380Y-121428571D02*
X167285714Y-121428571D01*
X167380952Y-121428571D02*
X167333333Y-121380952D01*
X167285714Y-121285714D01*
X167285714Y-121142857D01*
X167333333Y-121047619D01*
X167428571Y-120999999D01*
X167952380Y-120999999D01*
X167428571Y-120999999D02*
X167333333Y-120952380D01*
X167285714Y-120857142D01*
X167285714Y-120714285D01*
X167333333Y-120619047D01*
X167428571Y-120571428D01*
X167952380Y-120571428D01*
X167952380Y-119666666D02*
X167428571Y-119666666D01*
X167333333Y-119714285D01*
X167285714Y-119809523D01*
X167285714Y-119999999D01*
X167333333Y-120095238D01*
X167904761Y-119666666D02*
X167952380Y-119761904D01*
X167952380Y-119999999D01*
X167904761Y-120095238D01*
X167809523Y-120142857D01*
X167714285Y-120142857D01*
X167619047Y-120095238D01*
X167571428Y-119999999D01*
X167571428Y-119761904D01*
X167523809Y-119666666D01*
X167904761Y-119238095D02*
X167952380Y-119142857D01*
X167952380Y-118952380D01*
X167904761Y-118857142D01*
X167809523Y-118809523D01*
X167761904Y-118809523D01*
X167666666Y-118857142D01*
X167619047Y-118952380D01*
X167619047Y-119095238D01*
X167571428Y-119190476D01*
X167476190Y-119238095D01*
X167428571Y-119238095D01*
X167333333Y-119190476D01*
X167285714Y-119095238D01*
X167285714Y-118952380D01*
X167333333Y-118857142D01*
X167952380Y-118380952D02*
X166952380Y-118380952D01*
X167571428Y-118285714D02*
X167952380Y-117999999D01*
X167285714Y-117999999D02*
X167666666Y-118380952D01*
X167952380Y-116666666D02*
X167904761Y-116761904D01*
X167809523Y-116809523D01*
X166952380Y-116809523D01*
X167952380Y-115857142D02*
X167428571Y-115857142D01*
X167333333Y-115904761D01*
X167285714Y-115999999D01*
X167285714Y-116190476D01*
X167333333Y-116285714D01*
X167904761Y-115857142D02*
X167952380Y-115952380D01*
X167952380Y-116190476D01*
X167904761Y-116285714D01*
X167809523Y-116333333D01*
X167714285Y-116333333D01*
X167619047Y-116285714D01*
X167571428Y-116190476D01*
X167571428Y-115952380D01*
X167523809Y-115857142D01*
X167285714Y-115476190D02*
X167952380Y-115238095D01*
X167285714Y-114999999D02*
X167952380Y-115238095D01*
X168190476Y-115333333D01*
X168238095Y-115380952D01*
X168285714Y-115476190D01*
X167904761Y-114238095D02*
X167952380Y-114333333D01*
X167952380Y-114523809D01*
X167904761Y-114619047D01*
X167809523Y-114666666D01*
X167428571Y-114666666D01*
X167333333Y-114619047D01*
X167285714Y-114523809D01*
X167285714Y-114333333D01*
X167333333Y-114238095D01*
X167428571Y-114190476D01*
X167523809Y-114190476D01*
X167619047Y-114666666D01*
X167952380Y-113761904D02*
X167285714Y-113761904D01*
X167476190Y-113761904D02*
X167380952Y-113714285D01*
X167333333Y-113666666D01*
X167285714Y-113571428D01*
X167285714Y-113476190D01*
X167952380Y-112380952D02*
X167285714Y-112380952D01*
X166952380Y-112380952D02*
X167000000Y-112428571D01*
X167047619Y-112380952D01*
X167000000Y-112333333D01*
X166952380Y-112380952D01*
X167047619Y-112380952D01*
X167285714Y-111904761D02*
X167952380Y-111904761D01*
X167380952Y-111904761D02*
X167333333Y-111857142D01*
X167285714Y-111761904D01*
X167285714Y-111619047D01*
X167333333Y-111523809D01*
X167428571Y-111476190D01*
X167952380Y-111476190D01*
X167285714Y-111142857D02*
X167285714Y-110761904D01*
X166952380Y-111000000D02*
X167809523Y-111000000D01*
X167904761Y-110952380D01*
X167952380Y-110857142D01*
X167952380Y-110761904D01*
X167904761Y-110047619D02*
X167952380Y-110142857D01*
X167952380Y-110333333D01*
X167904761Y-110428571D01*
X167809523Y-110476190D01*
X167428571Y-110476190D01*
X167333333Y-110428571D01*
X167285714Y-110333333D01*
X167285714Y-110142857D01*
X167333333Y-110047619D01*
X167428571Y-110000000D01*
X167523809Y-110000000D01*
X167619047Y-110476190D01*
X167285714Y-109571428D02*
X167952380Y-109571428D01*
X167380952Y-109571428D02*
X167333333Y-109523809D01*
X167285714Y-109428571D01*
X167285714Y-109285714D01*
X167333333Y-109190476D01*
X167428571Y-109142857D01*
X167952380Y-109142857D01*
X167285714Y-108809523D02*
X167285714Y-108428571D01*
X166952380Y-108666666D02*
X167809523Y-108666666D01*
X167904761Y-108619047D01*
X167952380Y-108523809D01*
X167952380Y-108428571D01*
X167952380Y-108095238D02*
X167285714Y-108095238D01*
X166952380Y-108095238D02*
X167000000Y-108142857D01*
X167047619Y-108095238D01*
X167000000Y-108047619D01*
X166952380Y-108095238D01*
X167047619Y-108095238D01*
X167952380Y-107476190D02*
X167904761Y-107571428D01*
X167857142Y-107619047D01*
X167761904Y-107666666D01*
X167476190Y-107666666D01*
X167380952Y-107619047D01*
X167333333Y-107571428D01*
X167285714Y-107476190D01*
X167285714Y-107333333D01*
X167333333Y-107238095D01*
X167380952Y-107190476D01*
X167476190Y-107142857D01*
X167761904Y-107142857D01*
X167857142Y-107190476D01*
X167904761Y-107238095D01*
X167952380Y-107333333D01*
X167952380Y-107476190D01*
X167285714Y-106714285D02*
X167952380Y-106714285D01*
X167380952Y-106714285D02*
X167333333Y-106666666D01*
X167285714Y-106571428D01*
X167285714Y-106428571D01*
X167333333Y-106333333D01*
X167428571Y-106285714D01*
X167952380Y-106285714D01*
X167952380Y-105380952D02*
X167428571Y-105380952D01*
X167333333Y-105428571D01*
X167285714Y-105523809D01*
X167285714Y-105714285D01*
X167333333Y-105809523D01*
X167904761Y-105380952D02*
X167952380Y-105476190D01*
X167952380Y-105714285D01*
X167904761Y-105809523D01*
X167809523Y-105857142D01*
X167714285Y-105857142D01*
X167619047Y-105809523D01*
X167571428Y-105714285D01*
X167571428Y-105476190D01*
X167523809Y-105380952D01*
X167952380Y-104761904D02*
X167904761Y-104857142D01*
X167809523Y-104904761D01*
X166952380Y-104904761D01*
X167952380Y-104238095D02*
X167904761Y-104333333D01*
X167809523Y-104380952D01*
X166952380Y-104380952D01*
X167285714Y-103952380D02*
X167952380Y-103714285D01*
X167285714Y-103476190D02*
X167952380Y-103714285D01*
X168190476Y-103809523D01*
X168238095Y-103857142D01*
X168285714Y-103952380D01*
X167952380Y-102190476D02*
X167904761Y-102285714D01*
X167809523Y-102333333D01*
X166952380Y-102333333D01*
X167904761Y-101428571D02*
X167952380Y-101523809D01*
X167952380Y-101714285D01*
X167904761Y-101809523D01*
X167809523Y-101857142D01*
X167428571Y-101857142D01*
X167333333Y-101809523D01*
X167285714Y-101714285D01*
X167285714Y-101523809D01*
X167333333Y-101428571D01*
X167428571Y-101380952D01*
X167523809Y-101380952D01*
X167619047Y-101857142D01*
X167285714Y-101095238D02*
X167285714Y-100714285D01*
X167952380Y-100952380D02*
X167095238Y-100952380D01*
X167000000Y-100904761D01*
X166952380Y-100809523D01*
X166952380Y-100714285D01*
X167285714Y-100523809D02*
X167285714Y-100142857D01*
X166952380Y-100380952D02*
X167809523Y-100380952D01*
X167904761Y-100333333D01*
X167952380Y-100238095D01*
X167952380Y-100142857D01*
X167952380Y-99047619D02*
X166952380Y-99047619D01*
X167333333Y-99047619D02*
X167285714Y-98952380D01*
X167285714Y-98761904D01*
X167333333Y-98666666D01*
X167380952Y-98619047D01*
X167476190Y-98571428D01*
X167761904Y-98571428D01*
X167857142Y-98619047D01*
X167904761Y-98666666D01*
X167952380Y-98761904D01*
X167952380Y-98952380D01*
X167904761Y-99047619D01*
X167952380Y-98000000D02*
X167904761Y-98095238D01*
X167809523Y-98142857D01*
X166952380Y-98142857D01*
X167952380Y-97190476D02*
X167428571Y-97190476D01*
X167333333Y-97238095D01*
X167285714Y-97333333D01*
X167285714Y-97523809D01*
X167333333Y-97619047D01*
X167904761Y-97190476D02*
X167952380Y-97285714D01*
X167952380Y-97523809D01*
X167904761Y-97619047D01*
X167809523Y-97666666D01*
X167714285Y-97666666D01*
X167619047Y-97619047D01*
X167571428Y-97523809D01*
X167571428Y-97285714D01*
X167523809Y-97190476D01*
X167285714Y-96714285D02*
X167952380Y-96714285D01*
X167380952Y-96714285D02*
X167333333Y-96666666D01*
X167285714Y-96571428D01*
X167285714Y-96428571D01*
X167333333Y-96333333D01*
X167428571Y-96285714D01*
X167952380Y-96285714D01*
X167952380Y-95809523D02*
X166952380Y-95809523D01*
X167571428Y-95714285D02*
X167952380Y-95428571D01*
X167285714Y-95428571D02*
X167666666Y-95809523D01*
X167857142Y-95000000D02*
X167904761Y-94952380D01*
X167952380Y-95000000D01*
X167904761Y-95047619D01*
X167857142Y-95000000D01*
X167952380Y-95000000D01*
X167666666Y-93809523D02*
X167666666Y-93333333D01*
X167952380Y-93904761D02*
X166952380Y-93571428D01*
X167952380Y-93238095D01*
X167285714Y-92904761D02*
X168285714Y-92904761D01*
X167333333Y-92904761D02*
X167285714Y-92809523D01*
X167285714Y-92619047D01*
X167333333Y-92523809D01*
X167380952Y-92476190D01*
X167476190Y-92428571D01*
X167761904Y-92428571D01*
X167857142Y-92476190D01*
X167904761Y-92523809D01*
X167952380Y-92619047D01*
X167952380Y-92809523D01*
X167904761Y-92904761D01*
X167285714Y-92000000D02*
X168285714Y-92000000D01*
X167333333Y-92000000D02*
X167285714Y-91904761D01*
X167285714Y-91714285D01*
X167333333Y-91619047D01*
X167380952Y-91571428D01*
X167476190Y-91523809D01*
X167761904Y-91523809D01*
X167857142Y-91571428D01*
X167904761Y-91619047D01*
X167952380Y-91714285D01*
X167952380Y-91904761D01*
X167904761Y-92000000D01*
X167952380Y-90952380D02*
X167904761Y-91047619D01*
X167809523Y-91095238D01*
X166952380Y-91095238D01*
X167285714Y-90666666D02*
X167952380Y-90428571D01*
X167285714Y-90190476D02*
X167952380Y-90428571D01*
X168190476Y-90523809D01*
X168238095Y-90571428D01*
X168285714Y-90666666D01*
X167952380Y-89047619D02*
X167285714Y-89047619D01*
X167380952Y-89047619D02*
X167333333Y-89000000D01*
X167285714Y-88904761D01*
X167285714Y-88761904D01*
X167333333Y-88666666D01*
X167428571Y-88619047D01*
X167952380Y-88619047D01*
X167428571Y-88619047D02*
X167333333Y-88571428D01*
X167285714Y-88476190D01*
X167285714Y-88333333D01*
X167333333Y-88238095D01*
X167428571Y-88190476D01*
X167952380Y-88190476D01*
X167952380Y-87285714D02*
X167428571Y-87285714D01*
X167333333Y-87333333D01*
X167285714Y-87428571D01*
X167285714Y-87619047D01*
X167333333Y-87714285D01*
X167904761Y-87285714D02*
X167952380Y-87380952D01*
X167952380Y-87619047D01*
X167904761Y-87714285D01*
X167809523Y-87761904D01*
X167714285Y-87761904D01*
X167619047Y-87714285D01*
X167571428Y-87619047D01*
X167571428Y-87380952D01*
X167523809Y-87285714D01*
X167904761Y-86857142D02*
X167952380Y-86761904D01*
X167952380Y-86571428D01*
X167904761Y-86476190D01*
X167809523Y-86428571D01*
X167761904Y-86428571D01*
X167666666Y-86476190D01*
X167619047Y-86571428D01*
X167619047Y-86714285D01*
X167571428Y-86809523D01*
X167476190Y-86857142D01*
X167428571Y-86857142D01*
X167333333Y-86809523D01*
X167285714Y-86714285D01*
X167285714Y-86571428D01*
X167333333Y-86476190D01*
X167952380Y-86000000D02*
X166952380Y-86000000D01*
X167571428Y-85904761D02*
X167952380Y-85619047D01*
X167285714Y-85619047D02*
X167666666Y-86000000D01*
X167285714Y-84571428D02*
X167285714Y-84190476D01*
X166952380Y-84428571D02*
X167809523Y-84428571D01*
X167904761Y-84380952D01*
X167952380Y-84285714D01*
X167952380Y-84190476D01*
X167952380Y-83714285D02*
X167904761Y-83809523D01*
X167857142Y-83857142D01*
X167761904Y-83904761D01*
X167476190Y-83904761D01*
X167380952Y-83857142D01*
X167333333Y-83809523D01*
X167285714Y-83714285D01*
X167285714Y-83571428D01*
X167333333Y-83476190D01*
X167380952Y-83428571D01*
X167476190Y-83380952D01*
X167761904Y-83380952D01*
X167857142Y-83428571D01*
X167904761Y-83476190D01*
X167952380Y-83571428D01*
X167952380Y-83714285D01*
X167285714Y-82333333D02*
X167285714Y-81952380D01*
X166952380Y-82190476D02*
X167809523Y-82190476D01*
X167904761Y-82142857D01*
X167952380Y-82047619D01*
X167952380Y-81952380D01*
X167952380Y-81619047D02*
X166952380Y-81619047D01*
X167952380Y-81190476D02*
X167428571Y-81190476D01*
X167333333Y-81238095D01*
X167285714Y-81333333D01*
X167285714Y-81476190D01*
X167333333Y-81571428D01*
X167380952Y-81619047D01*
X167904761Y-80333333D02*
X167952380Y-80428571D01*
X167952380Y-80619047D01*
X167904761Y-80714285D01*
X167809523Y-80761904D01*
X167428571Y-80761904D01*
X167333333Y-80714285D01*
X167285714Y-80619047D01*
X167285714Y-80428571D01*
X167333333Y-80333333D01*
X167428571Y-80285714D01*
X167523809Y-80285714D01*
X167619047Y-80761904D01*
X167285714Y-79190476D02*
X167952380Y-79000000D01*
X167476190Y-78809523D01*
X167952380Y-78619047D01*
X167285714Y-78428571D01*
X167952380Y-78047619D02*
X166952380Y-78047619D01*
X167952380Y-77619047D02*
X167428571Y-77619047D01*
X167333333Y-77666666D01*
X167285714Y-77761904D01*
X167285714Y-77904761D01*
X167333333Y-78000000D01*
X167380952Y-78047619D01*
X167952380Y-77000000D02*
X167904761Y-77095238D01*
X167857142Y-77142857D01*
X167761904Y-77190476D01*
X167476190Y-77190476D01*
X167380952Y-77142857D01*
X167333333Y-77095238D01*
X167285714Y-77000000D01*
X167285714Y-76857142D01*
X167333333Y-76761904D01*
X167380952Y-76714285D01*
X167476190Y-76666666D01*
X167761904Y-76666666D01*
X167857142Y-76714285D01*
X167904761Y-76761904D01*
X167952380Y-76857142D01*
X167952380Y-77000000D01*
X167952380Y-76095238D02*
X167904761Y-76190476D01*
X167809523Y-76238095D01*
X166952380Y-76238095D01*
X167904761Y-75333333D02*
X167952380Y-75428571D01*
X167952380Y-75619047D01*
X167904761Y-75714285D01*
X167809523Y-75761904D01*
X167428571Y-75761904D01*
X167333333Y-75714285D01*
X167285714Y-75619047D01*
X167285714Y-75428571D01*
X167333333Y-75333333D01*
X167428571Y-75285714D01*
X167523809Y-75285714D01*
X167619047Y-75761904D01*
X167285714Y-74238095D02*
X167285714Y-73857142D01*
X167952380Y-74095238D02*
X167095238Y-74095238D01*
X167000000Y-74047619D01*
X166952380Y-73952380D01*
X166952380Y-73857142D01*
X167952380Y-73523809D02*
X167285714Y-73523809D01*
X167476190Y-73523809D02*
X167380952Y-73476190D01*
X167333333Y-73428571D01*
X167285714Y-73333333D01*
X167285714Y-73238095D01*
X167952380Y-72761904D02*
X167904761Y-72857142D01*
X167857142Y-72904761D01*
X167761904Y-72952380D01*
X167476190Y-72952380D01*
X167380952Y-72904761D01*
X167333333Y-72857142D01*
X167285714Y-72761904D01*
X167285714Y-72619047D01*
X167333333Y-72523809D01*
X167380952Y-72476190D01*
X167476190Y-72428571D01*
X167761904Y-72428571D01*
X167857142Y-72476190D01*
X167904761Y-72523809D01*
X167952380Y-72619047D01*
X167952380Y-72761904D01*
X167285714Y-72000000D02*
X167952380Y-72000000D01*
X167380952Y-72000000D02*
X167333333Y-71952380D01*
X167285714Y-71857142D01*
X167285714Y-71714285D01*
X167333333Y-71619047D01*
X167428571Y-71571428D01*
X167952380Y-71571428D01*
X167285714Y-71238095D02*
X167285714Y-70857142D01*
X166952380Y-71095238D02*
X167809523Y-71095238D01*
X167904761Y-71047619D01*
X167952380Y-70952380D01*
X167952380Y-70857142D01*
X167904761Y-70571428D02*
X167952380Y-70476190D01*
X167952380Y-70285714D01*
X167904761Y-70190476D01*
X167809523Y-70142857D01*
X167761904Y-70142857D01*
X167666666Y-70190476D01*
X167619047Y-70285714D01*
X167619047Y-70428571D01*
X167571428Y-70523809D01*
X167476190Y-70571428D01*
X167428571Y-70571428D01*
X167333333Y-70523809D01*
X167285714Y-70428571D01*
X167285714Y-70285714D01*
X167333333Y-70190476D01*
X167952380Y-69714285D02*
X167285714Y-69714285D01*
X166952380Y-69714285D02*
X167000000Y-69761904D01*
X167047619Y-69714285D01*
X167000000Y-69666666D01*
X166952380Y-69714285D01*
X167047619Y-69714285D01*
X167952380Y-68809523D02*
X166952380Y-68809523D01*
X167904761Y-68809523D02*
X167952380Y-68904761D01*
X167952380Y-69095238D01*
X167904761Y-69190476D01*
X167857142Y-69238095D01*
X167761904Y-69285714D01*
X167476190Y-69285714D01*
X167380952Y-69238095D01*
X167333333Y-69190476D01*
X167285714Y-69095238D01*
X167285714Y-68904761D01*
X167333333Y-68809523D01*
X167904761Y-67952380D02*
X167952380Y-68047619D01*
X167952380Y-68238095D01*
X167904761Y-68333333D01*
X167809523Y-68380952D01*
X167428571Y-68380952D01*
X167333333Y-68333333D01*
X167285714Y-68238095D01*
X167285714Y-68047619D01*
X167333333Y-67952380D01*
X167428571Y-67904761D01*
X167523809Y-67904761D01*
X167619047Y-68380952D01*
M02*
