G04 #@! TF.GenerationSoftware,KiCad,Pcbnew,(5.1.5)-3*
G04 #@! TF.CreationDate,2020-06-13T14:21:20+02:00*
G04 #@! TF.ProjectId,elektrode_v3_bipolar,656c656b-7472-46f6-9465-5f76335f6269,rev?*
G04 #@! TF.SameCoordinates,Original*
G04 #@! TF.FileFunction,Legend,Top*
G04 #@! TF.FilePolarity,Positive*
%FSLAX46Y46*%
G04 Gerber Fmt 4.6, Leading zero omitted, Abs format (unit mm)*
G04 Created by KiCad (PCBNEW (5.1.5)-3) date 2020-06-13 14:21:20*
%MOMM*%
%LPD*%
G04 APERTURE LIST*
%ADD10C,0.300000*%
G04 APERTURE END LIST*
D10*
X142357142Y-123904761D02*
X142357142Y-123238095D01*
X143404761Y-122952380D02*
X143404761Y-123904761D01*
X141404761Y-123904761D01*
X141404761Y-122952380D01*
X143404761Y-121809523D02*
X143309523Y-122000000D01*
X143119047Y-122095238D01*
X141404761Y-122095238D01*
X143309523Y-120285714D02*
X143404761Y-120476190D01*
X143404761Y-120857142D01*
X143309523Y-121047619D01*
X143119047Y-121142857D01*
X142357142Y-121142857D01*
X142166666Y-121047619D01*
X142071428Y-120857142D01*
X142071428Y-120476190D01*
X142166666Y-120285714D01*
X142357142Y-120190476D01*
X142547619Y-120190476D01*
X142738095Y-121142857D01*
X143404761Y-119333333D02*
X141404761Y-119333333D01*
X142642857Y-119142857D02*
X143404761Y-118571428D01*
X142071428Y-118571428D02*
X142833333Y-119333333D01*
X142071428Y-118000000D02*
X142071428Y-117238095D01*
X141404761Y-117714285D02*
X143119047Y-117714285D01*
X143309523Y-117619047D01*
X143404761Y-117428571D01*
X143404761Y-117238095D01*
X143404761Y-116571428D02*
X142071428Y-116571428D01*
X142452380Y-116571428D02*
X142261904Y-116476190D01*
X142166666Y-116380952D01*
X142071428Y-116190476D01*
X142071428Y-116000000D01*
X143404761Y-115047619D02*
X143309523Y-115238095D01*
X143214285Y-115333333D01*
X143023809Y-115428571D01*
X142452380Y-115428571D01*
X142261904Y-115333333D01*
X142166666Y-115238095D01*
X142071428Y-115047619D01*
X142071428Y-114761904D01*
X142166666Y-114571428D01*
X142261904Y-114476190D01*
X142452380Y-114380952D01*
X143023809Y-114380952D01*
X143214285Y-114476190D01*
X143309523Y-114571428D01*
X143404761Y-114761904D01*
X143404761Y-115047619D01*
X143404761Y-112666666D02*
X141404761Y-112666666D01*
X143309523Y-112666666D02*
X143404761Y-112857142D01*
X143404761Y-113238095D01*
X143309523Y-113428571D01*
X143214285Y-113523809D01*
X143023809Y-113619047D01*
X142452380Y-113619047D01*
X142261904Y-113523809D01*
X142166666Y-113428571D01*
X142071428Y-113238095D01*
X142071428Y-112857142D01*
X142166666Y-112666666D01*
X143309523Y-110952380D02*
X143404761Y-111142857D01*
X143404761Y-111523809D01*
X143309523Y-111714285D01*
X143119047Y-111809523D01*
X142357142Y-111809523D01*
X142166666Y-111714285D01*
X142071428Y-111523809D01*
X142071428Y-111142857D01*
X142166666Y-110952380D01*
X142357142Y-110857142D01*
X142547619Y-110857142D01*
X142738095Y-111809523D01*
X143404761Y-108476190D02*
X141404761Y-108476190D01*
X142166666Y-108476190D02*
X142071428Y-108285714D01*
X142071428Y-107904761D01*
X142166666Y-107714285D01*
X142261904Y-107619047D01*
X142452380Y-107523809D01*
X143023809Y-107523809D01*
X143214285Y-107619047D01*
X143309523Y-107714285D01*
X143404761Y-107904761D01*
X143404761Y-108285714D01*
X143309523Y-108476190D01*
X143404761Y-106666666D02*
X142071428Y-106666666D01*
X141404761Y-106666666D02*
X141500000Y-106761904D01*
X141595238Y-106666666D01*
X141500000Y-106571428D01*
X141404761Y-106666666D01*
X141595238Y-106666666D01*
X142071428Y-105714285D02*
X144071428Y-105714285D01*
X142166666Y-105714285D02*
X142071428Y-105523809D01*
X142071428Y-105142857D01*
X142166666Y-104952380D01*
X142261904Y-104857142D01*
X142452380Y-104761904D01*
X143023809Y-104761904D01*
X143214285Y-104857142D01*
X143309523Y-104952380D01*
X143404761Y-105142857D01*
X143404761Y-105523809D01*
X143309523Y-105714285D01*
X143404761Y-103619047D02*
X143309523Y-103809523D01*
X143214285Y-103904761D01*
X143023809Y-104000000D01*
X142452380Y-104000000D01*
X142261904Y-103904761D01*
X142166666Y-103809523D01*
X142071428Y-103619047D01*
X142071428Y-103333333D01*
X142166666Y-103142857D01*
X142261904Y-103047619D01*
X142452380Y-102952380D01*
X143023809Y-102952380D01*
X143214285Y-103047619D01*
X143309523Y-103142857D01*
X143404761Y-103333333D01*
X143404761Y-103619047D01*
X143404761Y-101809523D02*
X143309523Y-102000000D01*
X143119047Y-102095238D01*
X141404761Y-102095238D01*
X143404761Y-100190476D02*
X142357142Y-100190476D01*
X142166666Y-100285714D01*
X142071428Y-100476190D01*
X142071428Y-100857142D01*
X142166666Y-101047619D01*
X143309523Y-100190476D02*
X143404761Y-100380952D01*
X143404761Y-100857142D01*
X143309523Y-101047619D01*
X143119047Y-101142857D01*
X142928571Y-101142857D01*
X142738095Y-101047619D01*
X142642857Y-100857142D01*
X142642857Y-100380952D01*
X142547619Y-100190476D01*
X143404761Y-99238095D02*
X142071428Y-99238095D01*
X142452380Y-99238095D02*
X142261904Y-99142857D01*
X142166666Y-99047619D01*
X142071428Y-98857142D01*
X142071428Y-98666666D01*
X141404761Y-96761904D02*
X143404761Y-96095238D01*
X141404761Y-95428571D01*
X143309523Y-94000000D02*
X143404761Y-94190476D01*
X143404761Y-94571428D01*
X143309523Y-94761904D01*
X143119047Y-94857142D01*
X142357142Y-94857142D01*
X142166666Y-94761904D01*
X142071428Y-94571428D01*
X142071428Y-94190476D01*
X142166666Y-94000000D01*
X142357142Y-93904761D01*
X142547619Y-93904761D01*
X142738095Y-94857142D01*
X143404761Y-93047619D02*
X142071428Y-93047619D01*
X142452380Y-93047619D02*
X142261904Y-92952380D01*
X142166666Y-92857142D01*
X142071428Y-92666666D01*
X142071428Y-92476190D01*
X142071428Y-92000000D02*
X143404761Y-91523809D01*
X142071428Y-91047619D01*
X143404761Y-90000000D02*
X143309523Y-90190476D01*
X143214285Y-90285714D01*
X143023809Y-90380952D01*
X142452380Y-90380952D01*
X142261904Y-90285714D01*
X142166666Y-90190476D01*
X142071428Y-90000000D01*
X142071428Y-89714285D01*
X142166666Y-89523809D01*
X142261904Y-89428571D01*
X142452380Y-89333333D01*
X143023809Y-89333333D01*
X143214285Y-89428571D01*
X143309523Y-89523809D01*
X143404761Y-89714285D01*
X143404761Y-90000000D01*
X143404761Y-88190476D02*
X143309523Y-88380952D01*
X143214285Y-88476190D01*
X143023809Y-88571428D01*
X142452380Y-88571428D01*
X142261904Y-88476190D01*
X142166666Y-88380952D01*
X142071428Y-88190476D01*
X142071428Y-87904761D01*
X142166666Y-87714285D01*
X142261904Y-87619047D01*
X142452380Y-87523809D01*
X143023809Y-87523809D01*
X143214285Y-87619047D01*
X143309523Y-87714285D01*
X143404761Y-87904761D01*
X143404761Y-88190476D01*
X143404761Y-86666666D02*
X142071428Y-86666666D01*
X142452380Y-86666666D02*
X142261904Y-86571428D01*
X142166666Y-86476190D01*
X142071428Y-86285714D01*
X142071428Y-86095238D01*
X142071428Y-85714285D02*
X142071428Y-84952380D01*
X141404761Y-85428571D02*
X143119047Y-85428571D01*
X143309523Y-85333333D01*
X143404761Y-85142857D01*
X143404761Y-84952380D01*
X141595238Y-82857142D02*
X141500000Y-82761904D01*
X141404761Y-82571428D01*
X141404761Y-82095238D01*
X141500000Y-81904761D01*
X141595238Y-81809523D01*
X141785714Y-81714285D01*
X141976190Y-81714285D01*
X142261904Y-81809523D01*
X143404761Y-82952380D01*
X143404761Y-81714285D01*
X141404761Y-80476190D02*
X141404761Y-80285714D01*
X141500000Y-80095238D01*
X141595238Y-80000000D01*
X141785714Y-79904761D01*
X142166666Y-79809523D01*
X142642857Y-79809523D01*
X143023809Y-79904761D01*
X143214285Y-80000000D01*
X143309523Y-80095238D01*
X143404761Y-80285714D01*
X143404761Y-80476190D01*
X143309523Y-80666666D01*
X143214285Y-80761904D01*
X143023809Y-80857142D01*
X142642857Y-80952380D01*
X142166666Y-80952380D01*
X141785714Y-80857142D01*
X141595238Y-80761904D01*
X141500000Y-80666666D01*
X141404761Y-80476190D01*
X141595238Y-79047619D02*
X141500000Y-78952380D01*
X141404761Y-78761904D01*
X141404761Y-78285714D01*
X141500000Y-78095238D01*
X141595238Y-78000000D01*
X141785714Y-77904761D01*
X141976190Y-77904761D01*
X142261904Y-78000000D01*
X143404761Y-79142857D01*
X143404761Y-77904761D01*
X141404761Y-76666666D02*
X141404761Y-76476190D01*
X141500000Y-76285714D01*
X141595238Y-76190476D01*
X141785714Y-76095238D01*
X142166666Y-76000000D01*
X142642857Y-76000000D01*
X143023809Y-76095238D01*
X143214285Y-76190476D01*
X143309523Y-76285714D01*
X143404761Y-76476190D01*
X143404761Y-76666666D01*
X143309523Y-76857142D01*
X143214285Y-76952380D01*
X143023809Y-77047619D01*
X142642857Y-77142857D01*
X142166666Y-77142857D01*
X141785714Y-77047619D01*
X141595238Y-76952380D01*
X141500000Y-76857142D01*
X141404761Y-76666666D01*
M02*
